<?xml version="1.0" standalone="no"?>
<!DOCTYPE svg PUBLIC "-//W3C//DTD SVG 20010904//EN"
 "http://www.w3.org/TR/2001/REC-SVG-20010904/DTD/svg10.dtd">
<svg version="1.0" xmlns="http://www.w3.org/2000/svg"
 width="64.000000pt" height="64.000000pt" viewBox="0 0 512.000000 512.000000"
 preserveAspectRatio="xMidYMid meet">
<metadata>
Created by potrace 1.10, written by Peter Selinger 2001-2011
</metadata>
<g transform="translate(0.000000,512.000000) scale(0.100000,-0.100000)"
fill="#8b4513" stroke="none">
<path d="M2115 5113 c-636 -50 -1192 -332 -1587 -803 -222 -264 -400 -625
-468 -945 -70 -332 -75 -597 -15 -920 148 -798 744 -1471 1520 -1715 148 -47
180 -54 336 -80 697 -117 1429 122 1938 631 509 509 748 1241 631 1938 -26
156 -34 188 -80 336 -174 549 -551 1004 -1067 1289 -351 193 -827 300 -1208
269z m1261 -1175 c52 -29 91 -82 103 -140 8 -38 11 -324 9 -964 l-3 -909 -24
-42 c-28 -49 -64 -77 -117 -92 -54 -15 -2133 -15 -2187 0 -47 13 -106 63 -123
106 -12 26 -14 206 -14 973 0 905 1 942 19 978 10 20 31 48 45 61 54 50 43 50
1191 48 986 -2 1072 -3 1101 -19z"/>
<path d="M2914 3742 c-38 -26 -7 -90 39 -78 30 7 43 37 27 66 -11 20 -45 26
-66 12z"/>
<path d="M3100 3730 c-15 -29 -3 -59 26 -66 30 -8 54 11 54 40 0 46 -59 64
-80 26z"/>
<path d="M1220 2770 l0 -780 68 -1 c87 -1 1859 -1 1935 0 l57 1 0 780 0 780
-1030 0 -1030 0 0 -780z m1178 506 c5 -6 -4 -62 -59 -361 -22 -121 -56 -308
-75 -415 -54 -298 -55 -300 -67 -300 -7 0 -29 3 -51 7 l-38 6 6 51 c4 28 22
134 41 236 62 331 113 613 125 685 19 113 16 108 68 101 25 -3 47 -8 50 -10z
m-393 -303 c14 -21 25 -41 25 -45 0 -4 -63 -52 -140 -107 l-141 -99 136 -97
c74 -53 138 -101 141 -107 3 -5 -6 -27 -21 -48 l-27 -39 -33 22 c-18 12 -83
58 -145 102 -62 44 -137 97 -167 118 -30 21 -52 44 -50 50 3 9 383 287 393
287 2 0 15 -17 29 -37z m726 -105 c109 -79 199 -145 199 -148 0 -8 -386 -280
-398 -280 -14 0 -65 67 -59 77 3 4 66 51 141 103 74 52 135 97 135 100 1 3
-54 43 -120 90 -184 129 -166 109 -134 158 15 23 30 42 32 42 3 0 94 -64 204
-142z"/>
</g>
</svg>
