<?xml version="1.0" standalone="no"?>
<!DOCTYPE svg PUBLIC "-//W3C//DTD SVG 20010904//EN"
 "http://www.w3.org/TR/2001/REC-SVG-20010904/DTD/svg10.dtd">
<svg version="1.0" xmlns="http://www.w3.org/2000/svg"
 width="64.000000pt" height="64.000000pt" viewBox="0 0 225.000000 225.000000"
 preserveAspectRatio="xMidYMid meet">
<metadata>
Created by potrace 1.10, written by Peter Selinger 2001-2011
</metadata>
<g transform="translate(0.000000,225.000000) scale(0.050000,-0.050000)"
fill="#8b4513" stroke="none">
<path d="M1136 3473 c-613 -232 -1108 -428 -1100 -435 24 -19 2197 -718 2234
-718 37 0 2170 699 2194 718 12 10 -2177 865 -2204 861 -5 -1 -511 -193 -1124
-426z"/>
<path d="M3835 2766 c-32 -8 -35 -48 -35 -474 0 -446 -2 -467 -42 -503 -31
-29 -38 -52 -29 -99 7 -33 11 -73 10 -90 -2 -16 -7 -248 -12 -515 l-8 -485
130 0 131 0 0 459 c0 309 -8 476 -23 511 -18 39 -18 57 0 75 34 34 28 83 -17
140 -37 48 -40 82 -40 523 0 260 -7 471 -15 470 -8 -2 -31 -7 -50 -12z"/>
<path d="M925 2361 l5 -311 90 -6 c298 -18 702 -141 1035 -314 l205 -106 155
88 c298 170 698 298 1009 324 l166 14 6 305 c4 239 -1 305 -21 305 -14 0 -318
-98 -676 -217 l-650 -217 -665 223 -665 223 6 -311z"/>
</g>
</svg>
