<?xml version="1.0" ?><svg enable-background="new 0 0 515.91 728.5" height="96" id="Layer_1" version="1.1" viewBox="0 0 512.00003 512" width="96" xml:space="preserve" xmlns="http://www.w3.org/2000/svg" xmlns:cc="http://creativecommons.org/ns#" xmlns:dc="http://purl.org/dc/elements/1.1/" xmlns:inkscape="http://www.inkscape.org/namespaces/inkscape" xmlns:rdf="http://www.w3.org/1999/02/22-rdf-syntax-ns#" xmlns:sodipodi="http://sodipodi.sourceforge.net/DTD/sodipodi-0.dtd" xmlns:svg="http://www.w3.org/2000/svg"><defs id="defs7"/><g id="g4034" transform="translate(136.1786,108.25001)"><path d="m -733.62329,72.267944 c 0,203.804876 -165.21649,369.021366 -369.02141,369.021366 -203.8048,0 -369.0213,-165.21649 -369.0213,-369.021366 0,-203.804874 165.2165,-369.021364 369.0213,-369.021364 203.80492,0 369.02141,165.21649 369.02141,369.021364 z" id="path4928" style="fill:#ea7015;fill-opacity:1;fill-rule:nonzero;stroke:none" transform="matrix(0.69372682,0,0,0.69372682,884.75558,97.615782)"/><g id="g4280" style="fill:#ffffff;fill-opacity:1" transform="matrix(0.70761089,0,0,0.70761089,-1860.0905,-3075.1825)"><path d="m 2795.9375,4320.875 c -65.5303,0 -124.7853,26.8282 -167.4063,70.0938 0.6814,0.974 1.3662,1.9176 2.0938,2.8437 0.026,0.026 0.037,0.067 0.062,0.094 1.4374,1.4635 3.0231,2.8589 4.8125,4.2188 0.444,-0.451 0.8645,-0.8957 1.3125,-1.3438 20.667,-20.667 44.7393,-36.8877 71.5313,-48.2187 27.7319,-11.73 57.2147,-17.6875 87.5937,-17.6875 28.677,0 56.516,5.3212 82.875,15.7812 5.2882,0.9137 11.1926,2.1064 17.3437,3.6876 7.5325,1.2827 15.0167,3.0306 22.4063,5.0624 -35.7035,-21.8889 -77.677,-34.5312 -122.625,-34.5312 z" id="path4260" style="fill:#ffffff;fill-opacity:1"/><g id="g4262" style="fill:#ffffff;fill-opacity:1" transform="matrix(15.236125,0,0,15.236125,2554.2455,4331.3806)"><path d="m 32,11.105 c 0,0.396 -0.031,1.168 -0.094,2.315 -0.063,1.146 -0.198,2.273 -0.406,3.379 -0.209,1.105 -0.594,2.346 -1.156,3.723 -0.563,1.376 -1.25,2.618 -2.063,3.723 -0.812,1.104 -1.927,2.148 -3.343,3.128 -1.417,0.979 -3.021,1.68 -4.812,2.096 -0.959,0.251 -1.938,0.396 -2.938,0.438 -0.041,0 -0.124,0.021 -0.249,0.062 -0.835,0.041 -1.667,0.041 -2.5,0 C 9.272,29.553 5.335,27.008 2.627,22.336 1.377,20.124 0.667,18.019 0.502,16.017 0.377,16.601 0.292,17.102 0.252,17.518 0.127,15.141 0.314,13.202 0.814,11.7 0.438,12.326 0.165,12.909 0,13.452 0.333,11.575 0.771,10.094 1.312,9.01 1.352,8.76 1.602,8.3 2.062,7.634 c 0,-0.084 0,-0.146 0,-0.188 C 1.978,6.277 2.094,5.224 2.406,4.286 2.718,3.348 2.977,2.763 3.187,2.534 3.395,2.305 3.562,2.128 3.687,2.003 3.728,3.003 4.25,3.962 5.25,4.88 5.5,4.921 5.728,4.943 5.938,4.943 6.978,4.734 8.063,4.755 9.188,5.005 9.853,4.17 10.876,3.607 12.25,3.316 l 1.188,-0.062 c -1.21,0.709 -1.938,1.73 -2.188,3.065 0.458,0.959 1.062,1.439 1.812,1.439 0.625,0 1.083,0 1.375,0 0.708,0 1.083,0.062 1.125,0.188 V 8.008 8.07 c 0.04,0.041 0.04,0.104 0,0.188 V 8.32 8.382 c -0.042,0.417 -0.188,0.729 -0.438,0.939 -0.042,0 -0.062,0.01 -0.062,0.031 0,0.021 -0.022,0.031 -0.062,0.031 0,0.041 -0.188,0.166 -0.562,0.375 -0.5,0.333 -0.897,0.604 -1.188,0.813 -0.542,0.333 -0.812,0.562 -0.812,0.688 v 0.062 h -0.062 c 0.125,0.25 0.208,0.562 0.25,0.938 0.083,0.375 0.103,0.604 0.062,0.688 0,0.209 0,0.396 0,0.563 -0.5,-0.25 -0.979,-0.417 -1.438,-0.5 -0.585,0.25 -0.917,0.521 -1,0.812 -0.042,0.167 -0.085,0.334 -0.125,0.501 0,0.792 0.562,1.523 1.688,2.189 0.458,0.292 0.927,0.46 1.406,0.501 0.478,0.042 0.853,0.021 1.125,-0.062 0.271,-0.084 0.603,-0.209 1,-0.376 0.396,-0.166 0.677,-0.271 0.844,-0.312 1.25,-0.334 2.271,-0.041 3.062,0.876 0.251,0.25 0.303,0.491 0.157,0.72 -0.146,0.229 -0.365,0.303 -0.657,0.219 -0.124,0.041 -0.208,0.053 -0.249,0.031 -0.042,-0.021 -0.136,0 -0.282,0.062 -0.146,0.062 -0.249,0.104 -0.312,0.125 -0.063,0.021 -0.167,0.084 -0.312,0.188 -0.146,0.105 -0.261,0.179 -0.345,0.22 -0.083,0.041 -0.218,0.135 -0.406,0.281 -0.188,0.146 -0.343,0.24 -0.468,0.281 -0.5,0.376 -1.219,0.647 -2.156,0.813 -0.937,0.166 -1.719,0.166 -2.344,0 0.5,0.376 0.896,0.647 1.188,0.813 0.29,0.167 0.771,0.429 1.438,0.782 0.665,0.354 1.239,0.585 1.719,0.688 0.478,0.104 1.083,0.156 1.812,0.156 0.729,0 1.396,-0.125 2,-0.376 0.604,-0.25 1.249,-0.677 1.938,-1.282 0.687,-0.604 1.343,-1.365 1.969,-2.283 0.125,-0.21 0.208,-0.335 0.249,-0.376 0.084,0 -0.021,0.563 -0.312,1.689 -0.125,0.585 -0.166,0.876 -0.125,0.876 0.709,-0.501 1.198,-1.461 1.469,-2.878 0.271,-1.418 0.303,-2.794 0.094,-4.13 0.5,0.209 0.854,0.604 1.062,1.189 l 0.126,0.125 c 0.249,-0.793 0.396,-1.825 0.438,-3.098 0.041,-1.272 -0.084,-2.325 -0.375,-3.159 0.541,0.166 1.041,0.709 1.5,1.627 C 27.941,9.774 27.753,9.159 27.504,8.596 27.253,8.033 26.973,7.553 26.659,7.157 26.347,6.761 26.013,6.385 25.659,6.031 25.305,5.677 24.941,5.384 24.566,5.155 24.19,4.926 23.826,4.717 23.472,4.529 23.118,4.341 22.784,4.195 22.472,4.091 22.159,3.987 21.877,3.903 21.628,3.841 21.377,3.779 21.19,3.736 21.066,3.715 20.941,3.694 20.899,3.684 20.941,3.684 21.982,3.392 23.045,3.246 24.129,3.246 24,3.044 23.76,2.856 23.406,2.69 23.052,2.523 22.666,2.378 22.249,2.252 21.833,2.127 21.427,2.023 21.031,1.94 20.635,1.855 20.166,1.752 19.625,1.627 h -0.062 0.124 c 1.167,-0.334 3,-0.084 5.5,0.751 0.917,0.291 1.751,0.823 2.5,1.596 0.751,0.771 1.22,1.345 1.407,1.721 0.187,0.375 0.322,0.688 0.406,0.938 V 6.381 C 29.541,6.172 29.51,5.85 29.406,5.411 29.302,4.973 29.145,4.504 28.937,4.004 c 0.041,0 0.104,0.031 0.188,0.094 0.083,0.062 0.239,0.291 0.469,0.688 0.229,0.396 0.489,0.97 0.78,1.72 0.459,1.127 0.854,3.149 1.188,6.069 l 0.375,-2.378 C 31.979,10.407 32,10.708 32,11.105 z" id="path4264" style="fill:#ffffff;fill-opacity:1"/></g><path d="m 3041.8015,4500.5778 c 0,6.0335 -0.4723,17.7958 -1.4322,35.2716 -0.9599,17.4606 -3.0167,34.6317 -6.1859,51.4829 -3.1843,16.8359 -9.0502,35.7439 -17.6129,56.7241 -8.578,20.9649 -19.0452,39.8881 -31.4321,56.7241 -12.3718,16.8206 -29.3601,32.7271 -50.9344,47.6585 -21.5896,14.9162 -46.0283,25.5967 -73.3162,31.935 -14.6115,3.8242 -29.5277,6.0335 -44.7638,6.6734 -0.6247,0 -1.8893,0.3199 -3.7938,0.9446 -12.7221,0.6247 -25.3986,0.6247 -38.0903,0 -78.725,-6.3382 -138.7097,-45.1141 -179.9691,-116.2973 -19.0452,-33.7023 -29.8628,-65.7744 -32.3768,-96.2771 -1.9045,8.8979 -3.1996,16.5312 -3.809,22.8694 -1.9045,-36.2162 0.9446,-65.7591 8.5627,-88.6437 -5.7288,9.5378 -9.8882,18.4204 -12.4022,26.6937 5.0736,-28.5983 11.7471,-51.163 19.9898,-67.6789 0.6094,-3.809 4.4185,-10.8177 11.4271,-20.9649 0,-1.2799 0,-2.2245 0,-2.8644 -1.2798,-17.811 0.4875,-33.8547 5.2412,-48.1462 4.7537,-14.2915 8.6998,-23.2046 11.8994,-26.6937 3.1691,-3.489 5.7136,-6.1858 7.6181,-8.0903 0.6247,15.2361 8.5779,29.8475 23.8141,43.8343 3.809,0.6247 7.2828,0.9599 10.4824,0.9599 15.8456,-3.1844 32.3768,-2.8644 49.5174,0.9446 10.132,-12.7222 25.7186,-21.3001 46.653,-25.7338 l 18.1005,-0.9446 c -18.4357,10.8024 -29.5276,26.3584 -33.3366,46.6987 6.9782,14.6114 16.1808,21.9248 27.6079,21.9248 9.5225,0 16.5007,0 20.9496,0 10.7872,0 16.5008,0.9446 17.1407,2.8643 v 0.9447 0.9446 c 0.6094,0.6247 0.6094,1.5846 0,2.8644 v 0.9447 0.9446 c -0.6399,6.3535 -2.8644,11.1071 -6.6734,14.3067 -0.64,0 -0.9447,0.1524 -0.9447,0.4723 0,0.32 -0.3352,0.4724 -0.9446,0.4724 0,0.6246 -2.8644,2.5292 -8.5627,5.7135 -7.6181,5.0736 -13.6668,9.2026 -18.1005,12.387 -8.258,5.0736 -12.3718,8.5627 -12.3718,10.4824 v 0.9447 h -0.9446 c 1.9045,3.809 3.1691,8.5627 3.809,14.2915 1.2646,5.7135 1.5693,9.2026 0.9447,10.4824 0,3.1844 0,6.0335 0,8.5779 -7.6181,-3.809 -14.9162,-6.3534 -21.9096,-7.618 -8.9131,3.809 -13.9715,7.938 -15.2361,12.3717 -0.6399,2.5445 -1.2951,5.0889 -1.9045,7.6333 0,12.067 8.5627,23.2046 25.7185,33.3519 6.9782,4.4489 14.1239,7.0086 21.422,7.6333 7.2829,0.6399 12.9965,0.32 17.1407,-0.9446 4.129,-1.2799 9.1874,-3.1844 15.2361,-5.7288 6.0335,-2.5292 10.3149,-4.129 12.8593,-4.7537 19.0451,-5.0889 34.6012,-0.6247 46.653,13.3468 3.8243,3.8091 4.6166,7.481 2.3921,10.9701 -2.2245,3.489 -5.5612,4.6165 -10.0102,3.3367 -1.8892,0.6246 -3.1691,0.8075 -3.7938,0.4723 -0.6399,-0.32 -2.0721,0 -4.2965,0.9446 -2.2245,0.9447 -3.7938,1.5846 -4.7537,1.9045 -0.9599,0.32 -2.5444,1.2799 -4.7537,2.8644 -2.2245,1.5998 -3.9766,2.7273 -5.2564,3.352 -1.2646,0.6247 -3.3215,2.0569 -6.1859,4.2813 -2.8644,2.2245 -5.226,3.6567 -7.1305,4.2814 -7.6181,5.7288 -18.5729,9.8578 -32.8491,12.387 -14.2763,2.5292 -26.1909,2.5292 -35.7135,0 7.6181,5.7287 13.6516,9.8577 18.1005,12.3869 4.4185,2.5445 11.7471,6.5363 21.9096,11.9147 10.132,5.3936 18.8775,8.9131 26.1909,10.4824 7.2829,1.5846 16.5007,2.3769 27.6078,2.3769 11.1072,0 21.2697,-1.9046 30.4723,-5.7288 9.2026,-3.8091 19.0299,-10.3149 29.5276,-19.5327 10.4672,-9.2027 20.4621,-20.7973 29.9999,-34.7841 1.9045,-3.1996 3.1691,-5.1041 3.7938,-5.7288 1.2799,0 -0.3199,8.5779 -4.7536,25.7338 -1.9046,8.9132 -2.5292,13.3469 -1.9046,13.3469 10.8025,-7.6333 18.2529,-22.26 22.3819,-43.8496 4.129,-21.6048 4.6166,-42.5697 1.4322,-62.9252 7.6181,3.1844 13.0117,9.2026 16.1808,18.1158 l 1.9197,1.9045 c 3.7938,-12.0823 6.0335,-27.806 6.6734,-47.2015 0.6247,-19.3804 -1.2798,-35.424 -5.7135,-48.131 8.2427,2.5292 15.8608,10.8025 22.8542,24.7892 -1.9045,-10.1777 -4.7689,-19.5479 -8.5627,-28.1259 -3.8243,-8.5779 -8.0904,-15.8912 -12.8745,-21.9248 -4.7537,-6.0335 -9.8426,-11.7622 -15.2362,-17.1558 -5.3936,-5.3936 -10.9395,-9.8578 -16.6531,-13.3469 -5.7287,-3.489 -11.2747,-6.6734 -16.6683,-9.5378 -5.3936,-2.8644 -10.4824,-5.0889 -15.2361,-6.6734 -4.7689,-1.5846 -9.0655,-2.8644 -12.8593,-3.809 -3.8243,-0.9447 -6.6734,-1.5998 -8.5627,-1.9198 -1.9045,-0.32 -2.5444,-0.4723 -1.9045,-0.4723 15.8608,-4.449 32.0568,-6.6734 48.5728,-6.6734 -1.9655,-3.0777 -5.6222,-5.9421 -11.0158,-8.4713 -5.3935,-2.5445 -11.2747,-4.7537 -17.6282,-6.6734 -6.3382,-1.9046 -12.524,-3.4891 -18.5576,-4.7537 -6.0335,-1.2951 -13.1792,-2.8644 -21.4219,-4.7689 h -0.9447 1.8893 c 17.7806,-5.0889 45.7084,-1.2799 83.7987,11.4423 13.9715,4.4337 26.6784,12.5393 38.0903,24.3169 11.4423,11.747 18.5881,20.4925 21.4372,26.2213 2.8492,5.7136 4.9061,10.4825 6.1859,14.2915 v -3.8395 c 0.6247,-3.1843 0.1523,-8.0904 -1.4322,-14.779 -1.5846,-6.6735 -3.9766,-13.8192 -7.1458,-21.4373 0.6247,0 1.5846,0.4724 2.8644,1.4322 1.2646,0.9447 3.6415,4.4338 7.1458,10.4825 3.4891,6.0335 7.4504,14.779 11.8842,26.2061 6.9933,17.1711 13.0116,47.9786 18.1005,92.4681 l 5.7135,-36.2315 c 0.6399,3.1996 0.9599,7.7856 0.9599,13.8344 z" id="path4268" style="fill:#ffffff;fill-opacity:1"/></g></g><path d="m 74.980696,437.01935 c 99.974224,99.97422 262.064454,99.97422 362.038674,0 99.97421,-99.97422 99.97422,-262.06445 0,-362.03867 L 74.980696,437.01935 z" id="path3752" style="fill:#000000;fill-opacity:0.30366492;fill-rule:nonzero;stroke:none"/></svg>
