<?xml version="1.0" standalone="no"?>
<!DOCTYPE svg PUBLIC "-//W3C//DTD SVG 20010904//EN"
 "http://www.w3.org/TR/2001/REC-SVG-20010904/DTD/svg10.dtd">
<svg version="1.0" xmlns="http://www.w3.org/2000/svg"
 width="30.000000pt" height="30.000000pt" viewBox="0 0 225.000000 225.000000"
 preserveAspectRatio="xMidYMid meet">
<metadata>
Created by potrace 1.10, written by Peter Selinger 2001-2011
</metadata>
<g transform="translate(0.000000,225.000000) scale(0.100000,-0.100000)"
fill="#8b4513" stroke="none">
<path d="M930 2055 c-198 -40 -374 -138 -516 -287 -85 -89 -118 -137 -172
-243 -53 -106 -80 -202 -92 -321 -37 -397 182 -783 545 -959 276 -134 584
-134 860 0 362 175 583 563 545 956 -12 122 -32 195 -79 296 -57 118 -101 183
-186 272 -147 154 -318 247 -523 287 -90 17 -294 17 -382 -1z m265 -450 c136
-36 241 -120 301 -239 65 -133 69 -263 11 -390 l-25 -54 88 -89 c50 -49 92
-100 95 -115 20 -79 -54 -153 -132 -133 -15 3 -68 46 -118 94 l-90 88 -53 -24
c-266 -123 -583 52 -635 350 -53 311 253 591 558 512z"/>
<path d="M982 1379 c-50 -25 -107 -88 -123 -136 -6 -19 -9 -66 -7 -103 4 -81
35 -135 107 -185 40 -28 49 -30 131 -30 82 0 91 2 131 30 24 17 57 50 74 74
28 40 30 49 30 131 0 82 -2 91 -30 131 -17 24 -50 57 -74 74 -37 26 -53 30
-119 33 -63 2 -85 -1 -120 -19z"/>
</g>
</svg>
