<?xml version="1.0" standalone="no"?>
<!DOCTYPE svg PUBLIC "-//W3C//DTD SVG 20010904//EN"
 "http://www.w3.org/TR/2001/REC-SVG-20010904/DTD/svg10.dtd">
<svg version="1.0" xmlns="http://www.w3.org/2000/svg"
 width="64.000000pt" height="64.000000pt" viewBox="0 0 256.000000 256.000000"
 preserveAspectRatio="xMidYMid meet">
<metadata>
Created by potrace 1.10, written by Peter Selinger 2001-2011
</metadata>
<g transform="translate(0.000000,256.000000) scale(0.100000,-0.100000)"
fill="#8b4513" stroke="none">
<path d="M224 1996 c-19 -14 -19 -32 -17 -713 l2 -698 22 -17 c20 -17 85 -18
1049 -18 964 0 1029 1 1049 18 l22 17 2 698 c2 681 2 699 -17 713 -30 21
-2082 21 -2112 0z m2093 -18 c15 -18 26 -1363 13 -1389 -10 -19 -33 -19 -1050
-19 -1020 0 -1039 0 -1050 19 -14 26 -2 1371 13 1389 7 9 227 12 1037 12 810
0 1030 -3 1037 -12z"/>
<path d="M370 1902 c0 -4 205 -212 455 -462 l455 -455 455 455 c250 250 455
458 455 462 0 5 -409 8 -910 8 -501 0 -910 -3 -910 -8z"/>
<path d="M300 1602 c0 -126 3 -391 7 -590 l6 -362 969 0 968 0 0 43 c0 23 3
288 7 590 5 466 4 547 -8 547 -8 0 -226 -211 -484 -470 -258 -259 -477 -470
-485 -470 -8 0 -227 212 -485 470 -258 259 -476 470 -482 470 -10 0 -13 -52
-13 -228z"/>
</g>
</svg>
